<svg xmlns="http://www.w3.org/2000/svg" width="160" height="160" viewBox="0 0 160 160">
    <g fill="none" fill-rule="evenodd" transform="translate(43 35)">
        <rect width="38.4" height="38.4" x="49.92" fill="#EB5C27" rx="3.84"/>
        <g fill-rule="nonzero">
            <g fill="#000">
                <path d="M67.5 42H72v-6h4.5V0H9v6H4.5v6H0v36h67.5v-6zM12 3h61.5v30H72V6H12V3zM7.5 9H69v30h-1.5V12h-60V9zm57 36H3V15h61.5v30z" transform="translate(0 12.48)"/>
                <path d="M4.5 25.5L7.5 25.5 7.5 19.5 13.5 19.5 13.5 16.5 4.5 16.5zM54 19.5L60 19.5 60 25.5 63 25.5 63 16.5 54 16.5zM7.5 34.5L4.5 34.5 4.5 43.5 13.5 43.5 13.5 40.5 7.5 40.5zM60 40.5L54 40.5 54 43.5 63 43.5 63 34.5 60 34.5z" transform="translate(0 12.48)"/>
            </g>
            <g fill="#111" stroke="#111" stroke-width="1.241">
                <path d="M11.917.124C5.412.124.124 5.412.124 11.917c0 6.505 5.288 11.793 11.793 11.793 6.505 0 11.793-5.288 11.793-11.793C23.71 5.412 18.422.124 11.917.124zm0 22.146c-5.71 0-10.353-4.642-10.353-10.353 0-5.71 4.643-10.353 10.353-10.353S22.27 6.207 22.27 11.917 17.628 22.27 11.917 22.27z" transform="translate(0 12.48) translate(0 53.76)"/>
                <path d="M9.6 14.93L6.05 11.379 4.783 12.646 9.6 17.462 17.843 9.219 16.552 7.953z" transform="translate(0 12.48) translate(0 53.76)"/>
            </g>
        </g>
    </g>
</svg>
