<svg xmlns="http://www.w3.org/2000/svg" width="160" height="160" viewBox="0 0 160 160">
    <g fill="none" fill-rule="evenodd" transform="translate(45 35)">
        <circle cx="19.242" cy="70.456" r="19.2" fill="#EB5C27"/>
        <path fill="#111" fill-rule="nonzero" d="M7.683 5.77c7.684-7.693 20.18-7.693 27.864 0 1.242 1.243 2.25 2.642 3.105 4.118 11.331.234 21.11 8.315 23.362 19.583.31 1.554.931 3.03 1.94 4.585l4.269 6.683c1.009 1.554 1.242 3.652.31 5.284-.93 1.632-2.638 2.642-4.501 2.642h-1.397v4.895c0 4.663-3.803 8.393-8.383 8.393h-1.785c-.698 0-1.32.622-1.32 1.321v6.527c0 1.166-.465 2.254-1.319 3.031-.776.7-1.785 1.088-2.794 1.088h-.388L27.63 72.21c-2.173-.155-3.803-1.942-3.803-4.118v-7.77c0-3.11-1.009-5.907-2.794-7.927-3.726-4.119-6.054-9.247-6.83-14.454-2.406-1.01-4.657-2.331-6.52-4.274-7.684-7.693-7.684-20.204 0-27.897zm32.909 8.936c1.164 4.352.854 9.092-1.164 13.444l2.095 6.372c.466 1.554.078 3.186-1.009 4.274-.776.855-1.862 1.243-2.95 1.243-.465 0-.853-.078-1.319-.233l-6.364-2.098c-3.493 1.632-7.218 2.176-10.866 1.71.854 3.652 2.639 7.226 5.278 10.18 2.561 2.797 3.958 6.682 3.958 10.878v7.46l18.395 1.632v-6.216c0-3.186 2.561-5.75 5.743-5.75h1.786c2.173 0 3.958-1.788 3.958-3.964v-6.45c0-1.632 1.32-2.953 2.95-2.953h2.871c.388 0 .543-.233.621-.388.078-.156.155-.389-.078-.7l-4.268-6.682c-1.32-1.943-2.174-4.041-2.562-6.062-1.707-8.548-8.693-14.687-17.075-15.697zM32.52 9.034c-5.899-5.984-15.6-5.984-21.577 0-5.977 5.905-5.977 15.619 0 21.602 4.657 4.74 11.875 5.75 17.851 2.643.31-.156.621-.234 1.01-.234.232 0 .465 0 .698.078l6.752 2.254-2.25-6.76c-.156-.545-.156-1.167.155-1.71 3.182-5.984 2.095-13.133-2.64-17.873zm-4.502 13.055c.31 0 .466.233.466.466 0 3.808-3.027 6.838-6.83 6.838l-.237-.004c-3.691-.126-6.593-3.182-6.593-6.834 0-.311.232-.466.465-.466zM15.444 11.52c1.672 0 3.027 1.357 3.027 3.03 0 1.675-1.355 3.031-3.027 3.031-1.671 0-3.027-1.356-3.027-3.03 0-1.674 1.356-3.03 3.027-3.03zm12.497 0c1.671 0 3.027 1.357 3.027 3.03 0 1.675-1.356 3.031-3.027 3.031-1.672 0-3.027-1.356-3.027-3.03 0-1.674 1.355-3.03 3.027-3.03z"/>
    </g>
</svg>
