<svg xmlns="http://www.w3.org/2000/svg" width="160" height="160" viewBox="0 0 160 160">
    <g fill="none" fill-rule="evenodd" transform="translate(39 39)">
        <circle cx="61.44" cy="63.36" r="19.2" fill="#EB5C27"/>
        <path fill="#000" fill-rule="nonzero" d="M42.767 0c.922 0 1.667.746 1.668 1.665l.002 6.158c1.916.572 3.76 1.347 5.52 2.294l8.086-7.99C59.298.853 60.995.145 62.806.145c1.782 0 3.462.69 4.73 1.943l2.053 2.034c1.277 1.263 1.987 2.948 1.994 4.744.01 1.795-.681 3.487-1.944 4.76l-2.333 2.306c-.064.1-.137.195-.223.283-.095.096-.199.174-.307.24l-5.164 5.102c1.072 1.905 1.939 3.913 2.563 6.005l6.158.003c.92.002 1.666.747 1.667 1.665V42.77c0 .92-.747 1.666-1.668 1.666h-6.16c-.571 1.918-1.334 3.768-2.279 5.524l4.35 4.351c.65.652.65 1.707 0 2.357l-9.573 9.575c-.652.65-1.707.65-2.357 0l-4.353-4.35c-1.752.944-3.603 1.708-5.523 2.279v6.163c0 .921-.745 1.666-1.666 1.666H29.23c-.92 0-1.666-.746-1.666-1.666v-6.162c-1.913-.57-3.761-1.333-5.525-2.28l-4.35 4.35c-.652.65-1.707.65-2.358 0l-9.574-9.575c-.311-.312-.488-.736-.488-1.177 0-.441.176-.866.488-1.179l4.352-4.351c-.948-1.76-1.713-3.61-2.284-5.525H1.666C.745 44.435 0 43.69 0 42.77V29.23c0-.92.746-1.666 1.666-1.666h6.159c.574-1.917 1.338-3.769 2.283-5.525l-4.351-4.35c-.65-.652-.65-1.706.001-2.356l9.577-9.576c.311-.312.736-.488 1.177-.488.442 0 .866.175 1.18.488l4.347 4.351c1.757-.946 3.606-1.71 5.521-2.282l.002-6.16C27.563.745 28.309 0 29.228 0zm-1.662 3.332H30.897l-.003 5.763c0 .762-.519 1.429-1.26 1.614-2.474.622-4.835 1.598-7.02 2.903-.654.39-1.492.288-2.033-.253l-4.068-4.07-7.221 7.22 4.07 4.07c.54.538.643 1.377.251 2.034-1.302 2.18-2.279 4.542-2.9 7.022-.187.74-.854 1.261-1.616 1.261H3.334v10.207h5.761c.764 0 1.43.52 1.616 1.263.617 2.466 1.593 4.83 2.9 7.02.394.656.29 1.494-.251 2.034l-4.071 4.07 7.218 7.22 4.07-4.07c.54-.539 1.377-.643 2.032-.252 2.195 1.309 4.557 2.284 7.023 2.897.743.186 1.263.852 1.263 1.618v5.766h10.21v-5.766c0-.766.52-1.432 1.261-1.616 2.48-.622 4.843-1.597 7.018-2.9.656-.39 1.492-.288 2.034.253l4.072 4.07 7.218-7.22-4.07-4.07c-.538-.54-.642-1.378-.25-2.034 1.301-2.18 2.278-4.543 2.898-7.021.185-.743.85-1.262 1.616-1.262h5.765V30.894h-5.761c-.764 0-1.43-.52-1.617-1.261-.49-1.961-1.214-3.849-2.14-5.639l-2.05 2.027c.426.902.799 1.83 1.104 2.776.752 2.318 1.135 4.743 1.135 7.202 0 12.867-10.469 23.337-23.336 23.337-12.868 0-23.335-10.47-23.335-23.337 0-12.866 10.467-23.335 23.335-23.335 3.28 0 6.43.662 9.387 1.967l2.078-2.053c-1.63-.794-3.333-1.427-5.099-1.869-.74-.185-1.261-.852-1.261-1.614l-.002-5.763zM36 15.996c-11.03 0-20.003 8.974-20.003 20.004 0 11.03 8.974 20.003 20.003 20.003 11.031 0 20.005-8.973 20.005-20.003 0-2.11-.329-4.187-.974-6.177-.14-.434-.311-.86-.482-1.284l-15.85 15.663c-.002.002-.006.003-.007.005l-.025.02c-.09.085-.19.158-.292.218l-.098.05c-.094.048-.19.086-.29.114-.021.007-.038.018-.061.025l-12.288 3.022c-.132.032-.265.048-.398.048-.437 0-.865-.172-1.181-.49-.413-.413-.578-1.012-.436-1.58l3.049-12.167c.006-.023.018-.042.024-.065.03-.096.067-.19.112-.28.018-.038.037-.073.059-.11.054-.087.116-.169.185-.248.019-.02.034-.044.053-.064.004-.003.008-.008.01-.012L42.808 17.18c-2.167-.787-4.448-1.185-6.807-1.185zm-6.807 21.116l-1.665 6.647 6.715-1.65-2.59-2.564-2.46-2.433zM56.625 8.213L51.478 13.3c-.011.013-.025.023-.037.036l-4.582 4.528c-.018.016-.032.034-.049.048L30.657 33.874l4.11 4.067 2.762 2.733 25.967-25.661-6.87-6.8zm-1.22 5.822c.66-.64 1.715-.628 2.356.034.642.66.626 1.713-.032 2.355L39.767 33.882c-.322.317-.743.472-1.16.472-.435 0-.869-.17-1.196-.504-.641-.66-.626-1.715.033-2.357zm9.787-9.578c-1.284-1.27-3.524-1.262-4.791.027l-1.405 1.388 6.872 6.8 1.416-1.402c.625-.63.974-1.483.969-2.386-.005-.906-.363-1.754-1.008-2.393z"/>
    </g>
</svg>
