<svg xmlns="http://www.w3.org/2000/svg" width="160" height="160" viewBox="0 0 160 160">
    <g fill="none" fill-rule="evenodd" transform="translate(39 42)">
        <rect width="38.4" height="38.4" fill="#EB5C27" rx="3.84" transform="translate(43.2)"/>
        <g fill-rule="nonzero" transform="translate(0 13.44)">
            <path fill="#000" d="M38.01 44.66c0 .49.21.98.56 1.33.35.35.84.56 1.33.56.49 0 .98-.21 1.33-.56l12.81-12.81c.35-.35.56-.84.56-1.33 0-.49-.21-.98-.56-1.33-.35-.35-.84-.56-1.33-.56-.49 0-.98.21-1.33.56L38.57 43.33c-.35.35-.56.84-.56 1.33z"/>
            <circle cx="41.02" cy="32.97" r="3.08" fill="#000"/>
            <circle cx="51.59" cy="43.54" r="3.08" fill="#000"/>
            <path fill="#000" d="M13.37 46.62h3.43c.49 0 .84-.35.84-.84v-6.51c0-.49-.35-.84-.84-.84h-3.36c-.49 0-.84.35-.84.84v6.51c-.07.49.35.84.77.84zM21 46.62h3.36c.49 0 .84-.35.84-.84V35c0-.49-.35-.84-.84-.84H21c-.49 0-.84.35-.84.84v10.78c0 .49.35.84.84.84zM28.56 46.62h3.36c.49 0 .84-.35.84-.84V30.73c0-.49-.35-.84-.84-.84h-3.36c-.49 0-.84.35-.84.84v15.05c0 .49.35.84.84.84z"/>
            <path fill="#111" d="M61.32.21H5.88C2.8.21.35 2.66.35 5.74v50.19c0 3.08 2.45 5.53 5.53 5.53h55.44c3.08 0 5.53-2.45 5.53-5.53V5.74c0-3.08-2.45-5.53-5.53-5.53zm1.82 55.65c0 1.05-.84 1.82-1.82 1.82H5.88c-1.05 0-1.82-.84-1.82-1.82V18.62h59.15v37.24h-.07zm0-40.95H4.06V5.74c0-1.05.84-1.82 1.82-1.82h55.44c1.05 0 1.82.84 1.82 1.82v9.17z"/>
            <circle cx="9.8" cy="9.38" r="2.17" fill="#000"/>
            <circle cx="16.52" cy="9.38" r="2.17" fill="#000"/>
            <circle cx="23.24" cy="9.38" r="2.17" fill="#000"/>
        </g>
    </g>
</svg>
