<svg xmlns="http://www.w3.org/2000/svg" width="120" height="120" viewBox="0 0 120 120">
    <g fill="none" fill-rule="evenodd">
        <path d="M0 0H120V120H0z"/>
        <path fill="#000" fill-rule="nonzero" d="M74.37 78.008c3.065-3.421 4.758-7.853 4.755-12.445h1.563c2.588 0 4.687-2.1 4.687-4.688v-4.688c0-1.725-1.4-3.124-3.125-3.124h-1.563V38.666c4.114-1.18 6.733-5.206 6.144-9.444-.59-4.24-4.208-7.398-8.487-7.41h-6.385c-1.912-4.718-6.494-7.805-11.584-7.805s-9.672 3.087-11.584 7.804h-6.385c-4.28.013-7.898 3.172-8.487 7.41-.59 4.24 2.03 8.266 6.143 9.445v14.395H38.5c-1.726 0-3.125 1.4-3.125 3.126v4.687c0 2.589 2.099 4.688 4.687 4.688h1.563c-.008 4.595 1.686 9.03 4.755 12.451C34.208 82.008 25.984 93.377 26 106.188c0 .862.7 1.562 1.562 1.562h65.625c.863 0 1.563-.7 1.563-1.563-.07-12.784-8.26-24.108-20.38-28.18zm7.88-17.133c0 .863-.7 1.563-1.563 1.563h-1.562v-6.25h3.125v4.687zM36.937 30.406c0-3.02 2.449-5.468 5.47-5.468h7.49c.69 0 1.3-.454 1.497-1.116 1.184-3.974 4.838-6.697 8.984-6.697s7.8 2.723 8.984 6.697c.197.66.803 1.113 1.491 1.115h7.49c3.021 0 5.47 2.449 5.47 5.47 0 3.02-2.449 5.468-5.47 5.468H42.407c-3.02 0-5.468-2.448-5.468-5.469zM43.188 39h34.376v14.063H43.187V39zm-3.124 23.438c-.863 0-1.563-.7-1.563-1.563v-4.688h3.125v6.25h-1.563zM44.75 64v-7.813H76v9.376c.012 4.645-2.055 9.053-5.636 12.014-5.788 4.81-14.183 4.81-19.972 0l-.02-.01c-.366-.299-.716-.616-1.049-.951-2.94-2.926-4.586-6.906-4.573-11.054V64zM36.9 87.405c3.347-3.35 7.53-5.74 12.114-6.925 6.711 5.11 16.01 5.11 22.72 0 .457.117.9.265 1.347.406l-5.612 6.552H51c-.863 0-1.563.7-1.563 1.562v15.625H29.17c.369-6.496 3.121-12.628 7.73-17.22zm31.288 17.22v-7.813h6.25v7.813h-6.25zm9.374 0V95.25c0-.863-.7-1.563-1.562-1.563h-9.375c-.863 0-1.563.7-1.563 1.563v9.375h-12.5V90.562h15.626c.456 0 .889-.2 1.185-.546l6.797-7.933c8.866 4.138 14.772 12.779 15.408 22.542H77.562z"/>
    </g>
</svg>
