<svg xmlns="http://www.w3.org/2000/svg" width="120" height="120" viewBox="0 0 120 120">
    <g fill="none" fill-rule="evenodd">
        <path d="M0 0H120V120H0z"/>
        <g fill="#000" fill-rule="nonzero">
            <path d="M93.75 46.875C93.75 20.987 72.763 0 46.875 0S0 20.987 0 46.875c-.031 10.136 3.262 20.003 9.375 28.09v17.222c0 .863.7 1.563 1.563 1.563h6.25c.862 0 1.562-.7 1.562-1.563v-7.834c17.864 13.435 42.735 12.362 59.375-2.562v10.397c0 .862.7 1.562 1.563 1.562h6.25c.862 0 1.562-.7 1.562-1.563V70.255c4.095-7.112 6.25-15.174 6.25-23.38zM15.625 63.478v27.147H12.5V63.581c.16-.674-.142-1.374-.744-1.719-1.47-.817-2.382-2.367-2.381-4.05V46.876h9.375v10.938c0 1.682-.91 3.232-2.381 4.05-.565.326-.863.973-.744 1.615zm31.25 27.147c-10.292.001-20.253-3.633-28.125-10.263V64.03c1.958-1.469 3.115-3.77 3.125-6.218v-25H18.75V43.75h-3.125V32.812H12.5V43.75H9.375V32.812H6.25v25c.01 2.448 1.167 4.75 3.125 6.218v5.332c-4.105-6.78-6.267-14.56-6.25-22.487-.01-17.632 10.565-33.547 26.824-40.369C46.21-.315 64.974 3.29 77.547 15.652 90.12 28.014 94.044 46.715 87.5 63.088V32.811c0-.862-.7-1.562-1.563-1.562-8.625.01-15.615 7-15.624 15.625v18.75c0 .863.7 1.563 1.562 1.563h4.688c.862 0 1.562.7 1.562 1.562v8.714c-8.192 8.457-19.476 13.21-31.25 13.161zm37.5 0H81.25V68.75c-.008-1.98-1.259-3.74-3.125-4.4v-9.662H75v9.374h-1.563V46.876c.009-6.296 4.692-11.606 10.938-12.402v56.152z" transform="translate(15 13)"/>
            <path d="M53.906 39.063c-1.294 0-2.343-1.05-2.343-2.344v-1.563c0-7.335-5.947-13.281-13.282-13.281S25 27.821 25 35.156v20.52c-.173 11.84 9 21.72 20.82 22.424.358.017.711.025 1.066.025 12.077-.006 21.864-9.798 21.864-21.875v-2.344c-.01-8.194-6.65-14.834-14.844-14.843zM65.625 56.25c0 5.13-2.102 10.037-5.817 13.575-3.714 3.54-8.716 5.402-13.84 5.153-10.153-.627-18.014-9.131-17.843-19.301v-20.52c0-5.61 4.547-10.157 10.156-10.157 5.61 0 10.157 4.547 10.157 10.156v1.563c0 3.02 2.448 5.468 5.468 5.468 6.47.007 11.712 5.25 11.719 11.72v2.343z" transform="translate(15 13)"/>
            <path d="M53.906 45.313c-4.743-.007-8.587-3.85-8.593-8.594v-1.563c0-3.883-3.148-7.031-7.032-7.031-3.883 0-7.031 3.148-7.031 7.031v20.52c-.07 8.464 6.426 15.536 14.866 16.182.253.012.506.017.757.017 4.145 0 8.12-1.646 11.05-4.576 2.93-2.93 4.577-6.905 4.577-11.049v-2.344c-.006-4.743-3.85-8.587-8.594-8.593zm5.469 10.937c0 3.422-1.403 6.695-3.881 9.055-2.479 2.36-5.817 3.6-9.235 3.43-6.778-.552-11.97-6.258-11.884-13.058v-20.52c0-2.158 1.749-3.907 3.906-3.907 2.158 0 3.907 1.749 3.907 3.906v1.563c.006 6.469 5.249 11.712 11.718 11.718 3.02 0 5.469 2.449 5.469 5.47v2.343zM67.475 20.973l-1.85 2.629c-1.382-1.41-3.12-2.418-5.03-2.92l-1.289-3.977-2.968.965.85 2.642h-4.063v3.125h4.688c.714.01 1.424.12 2.109.327l-1.666 1.705 2.238 2.187 2.306-2.365c1.15.961 1.997 2.235 2.44 3.667l-2.246-.749-.988 2.97 3.619 1.196V37.5h3.125v-6.25c-.001-1.727-.414-3.429-1.205-4.964l2.48-3.51-2.55-1.803z" transform="translate(15 13)"/>
            <path d="M35.623 49.219H45.628V52.346000000000004H35.623z" transform="translate(15 13) rotate(-51.34 40.626 50.782)"/>
            <path d="M39.992 56.25H52.19499999999999V59.377H39.992z" transform="translate(15 13) rotate(-50.194 46.094 57.813)"/>
            <path d="M54.688 56.25H57.813V59.375H54.688zM48.438 60.938H51.563V64.063H48.438z" transform="translate(15 13)"/>
            <path d="M34.966 36.718H41.596000000000004V39.843H34.966z" transform="translate(15 13) rotate(-45 38.281 38.28)"/>
            <path d="M53.125 28.125H56.25V31.25H53.125zM57.813 32.813H60.938V35.938H57.813z" transform="translate(15 13)"/>
        </g>
    </g>
</svg>
