<svg xmlns="http://www.w3.org/2000/svg" width="120" height="120" viewBox="0 0 120 120">
    <g fill="none" fill-rule="evenodd">
        <path d="M0 0H120V120H0z"/>
        <g fill="#000" fill-rule="nonzero">
            <path d="M68.75 70.313h-1.642c-.7-8.973-7.215-16.418-16.014-18.304.305-.626.465-1.313.468-2.009 0-2.589-2.098-4.688-4.687-4.688-2.589 0-4.688 2.1-4.688 4.688.004.696.164 1.383.47 2.01-8.8 1.885-15.314 9.33-16.015 18.303H25c-.863 0-1.563.7-1.563 1.562v4.688c0 .862.7 1.562 1.563 1.562h43.75c.863 0 1.563-.7 1.563-1.563v-4.687c0-.863-.7-1.563-1.563-1.563zM45.312 50c0-.863.7-1.563 1.563-1.563s1.563.7 1.563 1.563-.7 1.563-1.563 1.563-1.563-.7-1.563-1.563zm1.563 4.688c8.88.011 16.293 6.781 17.108 15.624h-27.92c.78-5.374 5.381-9.364 10.812-9.374v-3.126c-7.157.01-13.168 5.388-13.97 12.5h-3.138c.815-8.843 8.227-15.613 17.108-15.624zM67.188 75H26.562v-1.563h40.626V75z" transform="translate(13 13)"/>
            <path d="M92.14 29.788L78.124 7.366V4.688c0-2.59-2.099-4.688-4.688-4.688H20.313c-2.59 0-4.688 2.099-4.688 4.688v2.678L1.611 29.788c-1.633 2.51-1.638 5.746-.013 8.262 1.439 2.124 3.684 3.567 6.214 3.99v50.148c0 .862.7 1.562 1.563 1.562h75c.863 0 1.563-.7 1.563-1.563V42.041c2.53-.424 4.775-1.867 6.214-3.991 1.625-2.516 1.62-5.752-.013-8.262zm-73.39-25.1c0-.863.7-1.563 1.563-1.563h53.124c.863 0 1.563.7 1.563 1.563V6.25H18.75V4.687zm-7.813 85.937V42.042c1.742-.296 3.366-1.075 4.688-2.247.482.422 1.005.794 1.563 1.11v41.907c0 .863.7 1.563 1.562 1.563H75c.863 0 1.563-.7 1.563-1.563V40.906c.557-.316 1.08-.688 1.562-1.11 1.322 1.172 2.946 1.95 4.688 2.247v48.583H10.936zm9.376-48.583c.515.093 1.038.141 1.562.145 2.306-.006 4.53-.857 6.25-2.392 3.556 3.19 8.944 3.19 12.5 0 3.556 3.19 8.944 3.19 12.5 0 3.556 3.19 8.944 3.19 12.5 0 1.72 1.535 3.944 2.386 6.25 2.392.524-.004 1.047-.052 1.563-.145V81.25H20.312V42.042zM89.558 36.3c-1.13 1.679-3.001 2.707-5.024 2.759-2.023.052-3.946-.878-5.16-2.496-.295-.394-.758-.626-1.25-.626s-.955.232-1.25.626c-1.18 1.573-3.033 2.5-5 2.5s-3.82-.927-5-2.5c-.307-.374-.766-.59-1.25-.59s-.943.216-1.25.59c-1.18 1.573-3.033 2.5-5 2.5s-3.82-.927-5-2.5c-.307-.374-.766-.59-1.25-.59s-.943.216-1.25.59c-1.18 1.573-3.033 2.5-5 2.5s-3.82-.927-5-2.5c-.307-.374-.766-.59-1.25-.59s-.943.216-1.25.59c-1.18 1.573-3.033 2.5-5 2.5s-3.82-.927-5-2.5c-.307-.374-.766-.59-1.25-.59s-.943.216-1.25.59c-1.18 1.573-3.033 2.5-5 2.5s-3.82-.927-5-2.5c-.307-.374-.766-.59-1.25-.59s-.943.216-1.25.59c-1.214 1.619-3.137 2.55-5.16 2.499-2.023-.052-3.896-1.08-5.026-2.759-.935-1.49-.908-3.392.07-4.855L18.055 9.375h57.64l13.794 22.07c.978 1.463 1.006 3.364.07 4.855z" transform="translate(13 13)"/>
        </g>
    </g>
</svg>
