<svg xmlns="http://www.w3.org/2000/svg" width="160" height="160" viewBox="0 0 160 160">
    <g fill="none" fill-rule="evenodd" transform="translate(39 42)">
        <circle cx="19.2" cy="19.2" r="19.2" fill="#EB5C27" transform="translate(0 32.64)"/>
        <g fill="#111" fill-rule="nonzero">
            <path d="M28.8 0c15.882 0 28.8 12.92 28.8 28.8S44.682 57.6 28.8 57.6C12.918 57.6 0 44.68 0 28.8S12.918 0 28.8 0zm1.024 4.147v2.336c0 .565-.459 1.024-1.024 1.024s-1.024-.459-1.024-1.024V4.147c-3.748.155-7.284 1.13-10.424 2.78l1.176 2.034c.282.49.114 1.116-.375 1.399-.162.094-.338.137-.512.137-.352 0-.698-.182-.887-.512l-1.167-2.023c-3.068 1.951-5.675 4.556-7.627 7.626l2.022 1.167c.491.283.659.91.374 1.399-.188.327-.534.512-.886.512-.174 0-.35-.046-.512-.138l-2.032-1.173c-1.648 3.137-2.625 6.674-2.779 10.421h2.335c.565 0 1.024.459 1.024 1.024s-.46 1.024-1.024 1.024H4.147c.154 3.75 1.13 7.284 2.777 10.423l2.032-1.173c.487-.283 1.116-.117 1.398.374.283.49.115 1.117-.374 1.4l-2.02 1.166c1.952 3.068 4.557 5.67 7.625 7.624l1.167-2.02c.285-.492.911-.654 1.399-.376.491.283.66.91.375 1.399l-1.174 2.031c3.14 1.65 6.676 2.626 10.422 2.781l.002-2.334c0-.565.459-1.024 1.024-1.024s1.024.459 1.024 1.024l-.004 2.332c3.748-.153 7.284-1.13 10.422-2.779L39.07 48.64c-.28-.492-.112-1.116.377-1.399.494-.282 1.116-.114 1.401.377l1.163 2.021c3.07-1.951 5.675-4.556 7.629-7.628l-2.02-1.167c-.491-.285-.659-.91-.374-1.399.284-.49.917-.653 1.398-.374l2.032 1.173c1.646-3.14 2.623-6.674 2.779-10.421H51.12c-.565 0-1.024-.459-1.024-1.024s.46-1.024 1.024-1.024h2.335c-.154-3.747-1.128-7.282-2.779-10.421l-2.034 1.173c-.161.094-.338.137-.512.137-.354 0-.698-.182-.888-.511-.281-.492-.113-1.117.376-1.4l2.024-1.166c-1.952-3.068-4.557-5.673-7.627-7.626l-1.17 2.025c-.19.33-.534.512-.886.512-.174 0-.352-.043-.512-.137-.491-.283-.66-.91-.375-1.399l1.176-2.033c-3.14-1.65-6.676-2.626-10.424-2.781zM28.8 13.225c.565 0 1.024.458 1.024 1.023V26.58c.842.39 1.434 1.23 1.434 2.22 0 .297-.072.575-.17.84l6.428 6.426c.4.399.4 1.048 0 1.447-.2.199-.463.3-.725.3-.262 0-.524-.099-.725-.3l-6.424-6.424c-.267.099-.543.17-.842.17-1.356 0-2.458-1.101-2.458-2.459 0-.99.592-1.83 1.434-2.22V14.248c0-.565.459-1.023 1.024-1.023z" transform="translate(13.44)"/>
            <g stroke="#111" stroke-width="1.241">
                <path d="M11.917.124C5.412.124.124 5.412.124 11.917c0 6.505 5.288 11.793 11.793 11.793 6.505 0 11.793-5.288 11.793-11.793C23.71 5.412 18.422.124 11.917.124zm0 22.146c-5.71 0-10.353-4.642-10.353-10.353 0-5.71 4.643-10.353 10.353-10.353S22.27 6.207 22.27 11.917 17.628 22.27 11.917 22.27z" transform="translate(13.44) translate(44.16 52.8)"/>
                <path d="M9.6 14.93L6.05 11.379 4.783 12.646 9.6 17.462 17.843 9.219 16.552 7.953z" transform="translate(13.44) translate(44.16 52.8)"/>
            </g>
        </g>
    </g>
</svg>
