<svg xmlns="http://www.w3.org/2000/svg" width="120" height="120" viewBox="0 0 120 120">
    <g fill="none" fill-rule="evenodd">
        <path d="M0 0H120V120H0z"/>
        <g fill="#000" fill-rule="nonzero">
            <path d="M90.131 82.898l1.494-32.828c.02-.426-.137-.842-.432-1.15-.295-.309-.704-.483-1.13-.483h-6.25v-7.165l5.792-5.792-2.21-2.21-6.25 6.25c-.293.293-.457.69-.457 1.105v7.813H65.061c-.426 0-.835.173-1.13.482-.295.308-.451.724-.432 1.15l.283 6.18h-8.096v-5.022c5.748-2.933 9.368-8.838 9.376-15.29v-3.126h1.562c2.589 0 4.688-2.098 4.688-4.687V25c0-2.589-2.1-4.688-4.688-4.688h-1.563V18.75h1.563v-3.125H27.562v3.125h3.125v1.563h-1.562c-2.589 0-4.688 2.098-4.688 4.687v3.125c0 2.589 2.1 4.688 4.688 4.688h1.563v3.124c.007 6.453 3.627 12.358 9.375 15.291v5.022h-9.376c-4.377-.004-8.589 1.674-11.764 4.688h-8.548c-.863 0-1.563.7-1.563 1.562v3.125c.002 4.252 1.93 8.274 5.244 10.938H5.688c-.863 0-1.563.7-1.563 1.562.007 1.726.59 3.4 1.66 4.756-2.866.352-4.962 2.876-4.78 5.757.181 2.882 2.577 5.123 5.464 5.112H89.28c2.856.009 5.235-2.185 5.458-5.032.223-2.846-1.786-5.383-4.608-5.82zm-23.15-25.085h13.707V75h3.124V57.812h4.332l-1.138 25H68.12l-1.138-25zm21.447-6.25l-.142 3.124h-4.474v-3.124h4.616zm-7.74 0v3.124H66.838l-.142-3.124h13.99zm-15.699 31.25h-9.342c1.034-1.345 1.597-2.992 1.603-4.688 0-.863-.7-1.563-1.563-1.563H47.32c2.667-2.151 4.456-5.204 5.03-8.582 4.086-1.37 7.316-4.544 8.759-8.605h2.812l1.07 23.438zM38.922 60.936c-.35-.494-.658-1.016-.92-1.562h19.734c-1.083 2.26-2.91 4.081-5.173 5.156V62.5c0-.863-.7-1.563-1.563-1.563H38.922zm27.703-37.5c.863 0 1.563.7 1.563 1.563v3.125c0 .863-.7 1.563-1.563 1.563h-1.563v-6.25h1.563zm-37.5 6.25c-.863 0-1.563-.7-1.563-1.562V25c0-.863.7-1.563 1.563-1.563h1.563v6.25h-1.563zm4.688 6.25V18.75h28.124v17.188C61.938 43.703 55.642 50 47.876 50c-7.767 0-14.063-6.296-14.063-14.063zm9.374 16.522c3.062.888 6.314.888 9.376 0v3.791h-9.376v-3.79zm-12.5 6.916h3.938c.187.533.405 1.055.655 1.563H24.262c1.986-1.028 4.19-1.564 6.425-1.563zm-18.75 6.25v-1.563h37.5v1.563h-6.25v3.125h5.782c-1.385 4.628-5.638 7.802-10.469 7.813H22.875c-6.038-.007-10.93-4.9-10.938-10.938zm41.92 14.063c-.664 1.87-2.434 3.122-4.42 3.124h-37.5c-1.985-.002-3.755-1.253-4.42-3.124h46.34zm35.424 10.937H6.47c-1.295 0-2.344-1.05-2.344-2.344 0-1.294 1.05-2.344 2.344-2.344H89.28c1.295 0 2.344 1.05 2.344 2.344 0 1.295-1.05 2.344-2.344 2.344z" transform="translate(13 13)"/>
            <path d="M57.25 39.063c0-2.59-2.099-4.688-4.688-4.688-2.588 0-4.687 2.099-4.687 4.688h-6.25v3.124H57.25v-3.124zm-6.25 0c0-.863.7-1.563 1.563-1.563.862 0 1.562.7 1.562 1.563H51zM43.188 29.688v-3.125c0-.863-.7-1.563-1.563-1.563s-1.563.7-1.563 1.563v3.125c0 .862.7 1.562 1.563 1.562s1.563-.7 1.563-1.563zM54.125 31.25c.863 0 1.563-.7 1.563-1.563v-3.125c0-.862-.7-1.562-1.563-1.562s-1.563.7-1.563 1.563v3.125c0 .862.7 1.562 1.563 1.562zM41.625 3.125c3.176-.006 6.196 1.376 8.267 3.783.486.566 1.304.71 1.953.344 2.421-1.36 5.381-1.333 7.778.067 2.397 1.401 3.872 3.967 3.877 6.744h3.125c-.005-3.666-1.843-7.086-4.898-9.113-3.054-2.026-6.92-2.39-10.299-.969C47.376.041 41.36-1.089 36.153 1.11c-5.206 2.2-8.59 7.302-8.59 12.954h3.125c.006-6.038 4.9-10.931 10.937-10.938zM36.938 65.625H40.063V68.75H36.938z" transform="translate(13 13)"/>
        </g>
    </g>
</svg>
