<svg xmlns="http://www.w3.org/2000/svg" width="160" height="160" viewBox="0 0 160 160">
    <g fill="none" fill-rule="evenodd" transform="translate(37 46)">
        <circle cx="58.56" cy="50.88" r="19.2" fill="#EB5C27"/>
        <path fill="#111" fill-rule="nonzero" d="M43.87 0C28.336 0 15.682 12.817 15.682 28.576c0 15.76 12.654 28.547 28.186 28.547 8.82 0 16.728-4.072 21.89-10.525.616-.836.477-2.015-.316-2.68-.793-.664-1.96-.58-2.653.191-4.467 5.584-11.27 9.176-18.92 9.176-13.474 0-24.32-11.038-24.32-24.709 0-13.67 10.846-24.738 24.32-24.738 13.472 0 24.348 11.068 24.348 24.738 0 3.073-.524 6.018-1.53 8.726-.268.654-.162 1.404.275 1.956.438.551 1.138.816 1.824.69.687-.127 1.25-.624 1.47-1.296 1.164-3.136 1.799-6.534 1.799-10.076C72.056 12.816 59.402 0 43.869 0zm38.59 4.828c-.248.012-.493.073-.719.18-4.233 1.846-7.136 6.084-7.136 11.004v10.585c-.01.692.353 1.336.951 1.685s1.337.349 1.935 0c.598-.349.962-.993.952-1.685V16.012c0-2.153.851-4.011 2.159-5.457v20.72h-2.789c-.692-.01-1.336.354-1.685.952s-.349 1.337 0 1.935c.35.597.993.961 1.685.951h2.789v20.54c-.01.693.354 1.336.951 1.685.598.35 1.337.35 1.935 0 .598-.349.962-.992.952-1.684V6.747c0-.52-.21-1.017-.583-1.379-.373-.361-.877-.556-1.396-.54zM1.89 6.867c-.51.008-.995.217-1.35.583-.353.366-.548.857-.54 1.366v8.756c0 3.789 2.34 7.145 5.667 8.096v29.986c-.01.692.354 1.335.952 1.684.598.35 1.337.35 1.935 0 .598-.349.961-.992.951-1.684V25.668c3.328-.95 5.668-4.307 5.668-8.096V8.816c.01-.692-.354-1.336-.952-1.685s-1.337-.349-1.935 0c-.598.349-.961.993-.951 1.685v8.756c0 2.677-1.78 4.528-3.749 4.528-1.968 0-3.748-1.85-3.748-4.528V8.816c.008-.52-.194-1.02-.562-1.387-.367-.368-.868-.57-1.387-.562zm5.486.03c-.988.108-1.73.954-1.709 1.949v8.816c-.01.692.354 1.335.952 1.684.598.35 1.337.35 1.935 0 .598-.349.961-.992.951-1.684V8.846c.012-.553-.215-1.084-.622-1.457-.408-.373-.957-.553-1.507-.492zM43.69 9.146c-.958.156-1.647 1.017-1.601 2 .046.984.813 1.775 1.781 1.838 8.497 0 15.353 6.97 15.353 15.592S52.366 44.14 43.869 44.14s-15.323-6.94-15.323-15.563c0-5.55 2.847-10.432 7.137-13.193.575-.37.913-1.023.885-1.713-.028-.69-.416-1.314-1.02-1.634-.603-.321-1.329-.291-1.904.078-5.354 3.446-8.936 9.567-8.936 16.462 0 10.712 8.605 19.401 19.161 19.401 10.557 0 19.161-8.69 19.161-19.4 0-10.712-8.604-19.431-19.16-19.431-.06-.003-.12-.003-.18 0z"/>
    </g>
</svg>
