<svg xmlns="http://www.w3.org/2000/svg" width="120" height="120" viewBox="0 0 120 120">
    <g fill="none" fill-rule="evenodd">
        <path d="M0 0H120V120H0z"/>
        <path fill="#000" fill-rule="nonzero" d="M94.688 66.125h-1.563v-3.94c3.903-2.608 6.247-6.991 6.25-11.685h1.563c1.725 0 3.124-1.4 3.124-3.125V44.25c0-1.726-1.399-3.125-3.124-3.125h-1.563v-1.563h1.563c.862 0 1.562-.7 1.562-1.562V27.062c0-.862-.7-1.562-1.563-1.562h-1.654c-.817-7.098-6.826-12.455-13.97-12.455-7.145 0-13.154 5.357-13.97 12.455h-1.656c-.862 0-1.562.7-1.562 1.563V38c0 .863.7 1.563 1.563 1.563h1.562v1.562h-1.563c-1.725 0-3.124 1.4-3.124 3.125v3.125c0 1.726 1.399 3.125 3.124 3.125h1.563c.003 4.694 2.347 9.077 6.25 11.684v3.941h-1.563c-5.619.008-10.32 4.267-10.882 9.858l-5.708 2.284-5.547-8.322c-.437-.655-1.294-.883-1.998-.53l-1.077.538-1.35-1.35v-.915h12.5c.863 0 1.563-.7 1.563-1.563v-6.25c0-.863-.7-1.563-1.563-1.563H58.67c-.643-8.244-6.213-15.278-14.09-17.795.06-.315.096-.634.108-.955 0-3.451-2.799-6.25-6.25-6.25-3.452 0-6.25 2.799-6.25 6.25.011.321.047.64.107.955-7.877 2.517-13.447 9.551-14.09 17.795h-1.643c-.862 0-1.562.7-1.562 1.563v6.25c0 .863.7 1.563 1.563 1.563h9.971l2.693 5.385c.264.53.806.865 1.398.865h8.54l.898 1.346-.761.38c-.416.209-.717.592-.821 1.045-.105.453-.002.93.28 1.299L54.386 98.32c.294.388.752.616 1.239.618.212 0 .421-.043.616-.127L65 95.056v10.132c0 .862.7 1.562 1.563 1.562h37.5c.862 0 1.562-.7 1.562-1.563V77.064c-.008-6.038-4.9-10.93-10.937-10.938zm6.25-21.875v3.125h-1.563V44.25h1.563zM85.311 16.125c5.431.01 10.033 4 10.813 9.375H74.5c.78-5.374 5.382-9.365 10.813-9.375zm-14.062 12.5h28.125v7.813H71.25v-7.813zm-1.563 18.75V44.25h1.563v3.125h-1.563zm4.688 3.125V39.562H96.25V50.5c0 6.04-4.897 10.938-10.938 10.938-6.04 0-10.937-4.897-10.937-10.938zm6.25 13.242c3.03 1.094 6.346 1.094 9.375 0v2.383h-9.375v-2.383zm-45.313-24.18c0-1.725 1.4-3.124 3.126-3.124 1.725 0 3.124 1.399 3.124 3.124 0 .088-.021.174-.03.261-1.023-.165-2.058-.252-3.094-.26-1.037.008-2.072.095-3.096.26-.008-.087-.03-.173-.03-.26zm3.126 3.126c8.88.011 16.293 6.781 17.107 15.624H21.33c.814-8.843 8.227-15.613 17.108-15.624zm-20.313 18.75h42.188v3.124H18.124v-3.124zM41.3 71.507c-.29-.435-.778-.696-1.3-.695h-8.41l-1.562-3.126H46.25v1.563c0 .414.165.812.458 1.105l1.072 1.072-4.902 2.45-1.578-2.37zm10.664 1.319l1.378 2.067-9.417 4.71-1.531-1.992 9.57-4.785zm4.16 22.634L45.866 82.127l9.219-4.613 2.36 3.54c.408.613 1.19.856 1.874.585L65 79.37v12.288l-8.877 3.803zm12.001 8.164V77.062c.005-4.312 3.5-7.807 7.813-7.812h18.75c4.312.005 7.807 3.5 7.812 7.813h-6.25v-3.126h-3.125v3.126h-7.813c-.862 0-1.562.7-1.562 1.562h-1.563c-2.588 0-4.687 2.099-4.687 4.688v.312c-1.875.653-3.13 2.424-3.125 4.41v3.09c0 2.589 2.099 4.688 4.688 4.688h4.687c0 .862.7 1.562 1.563 1.562H102.5v6.25H68.125zM83.75 83.312h-3.125c0-.862.7-1.562 1.563-1.562h1.562v1.563zm-5.781 3.613c.298-.296.703-.46 1.123-.453h.019l4.639-.025v6.24h-4.688c-.862 0-1.562-.7-1.562-1.562v-3.09c0-.419.169-.819.469-1.11zm8.906-6.737h1.563V94.25h-1.563V80.187zm4.688 0H102.5V94.25H91.562V80.187z"/>
    </g>
</svg>
